<svg xmlns="http://www.w3.org/2000/svg" xmlns:xlink="http://www.w3.org/1999/xlink" width="31" height="13"><defs><path id="a" d="M0 .011h29.317V12.83H0V.01z"/><path id="c" d="M.019.011h18.574V12.83H.02V.01z"/></defs><g fill="none" fill-rule="evenodd"><path fill="#FFF" d="M.385 12.176V.983c0-.236.191-.427.427-.427h27.693c.236 0 .428.191.428.427v11.193a.428.428 0 01-.428.428H.812a.428.428 0 01-.427-.428"/><g transform="translate(0 .16)"><mask id="b" fill="#fff"><use xlink:href="#a"/></mask><path fill="#00C73C" d="M28.292.011H.684A.684.684 0 000 .696v11.449c0 .378.306.684.684.684h27.949a.684.684 0 00.684-.684V1.037c0-.566-.459-1.026-1.025-1.026m0 .77c.141 0 .256.114.256.256v10.852a.171.171 0 01-.171.17H.94a.171.171 0 01-.17-.17V.952A.17.17 0 01.94.78h27.352" mask="url(#b)"/></g><g transform="translate(11.974 .16)"><mask id="d" fill="#fff"><use xlink:href="#c"/></mask><path fill="#00C73C" d="M17.436.011H.02V12.83h17.417c.64 0 1.157-.46 1.157-1.026V1.037c0-.566-.518-1.026-1.157-1.026" mask="url(#d)"/></g><path fill="#FFF" d="M15.62 3.943v2.306h1.222c.895 0 1.343-.37 1.343-1.11v-.155c0-.356-.108-.618-.323-.788-.215-.169-.524-.253-.925-.253H15.62zm-.852-.74h2.216c.35 0 .653.044.91.133.258.089.471.212.64.37.169.158.295.346.378.564.083.218.125.453.125.705v.181c0 .253-.045.49-.134.71a1.645 1.645 0 01-.39.581 1.86 1.86 0 01-.64.396 2.474 2.474 0 01-.888.146H15.62v2.419h-.852V3.202zm7.814 4.062h-1.179c-.327 0-.56.063-.701.189-.14.126-.211.301-.211.525v.12c0 .23.08.396.24.5.161.103.354.155.578.155.206 0 .385-.025.537-.074.152-.048.291-.121.418-.219a.746.746 0 00.245-.297 1.1 1.1 0 00.073-.435v-.464zm-1.36 2.212c-.476 0-.853-.118-1.131-.353-.279-.236-.418-.56-.418-.973V7.92c0-.402.135-.729.405-.981.27-.253.705-.379 1.308-.379h1.196v-.276c0-.315-.076-.549-.228-.7-.152-.153-.4-.229-.744-.229a1.82 1.82 0 00-.719.13 3.9 3.9 0 00-.633.343l-.413-.62c.23-.16.488-.3.775-.417a2.62 2.62 0 01.998-.176c.264 0 .505.033.723.099.218.066.406.163.564.292a1.376 1.376 0 01.503 1.106v3.297h-.8V8.84h-.009a.903.903 0 01-.185.236 1.345 1.345 0 01-.254.185 1.759 1.759 0 01-.408.16 2.17 2.17 0 01-.53.056zm5.095-1.017l1.24-3.76h.877l-2.444 6.653-.757-.267.61-1.61L24.132 4.7h.904l1.248 3.76z"/><path fill="#00C73C" d="M7.472 3.432v3.176L5.298 3.432H2.945v6.296H5.29V6.55l2.176 3.177h2.35V3.432z"/></g></svg>